<svg xmlns="http://www.w3.org/2000/svg" viewBox="0 0 128 128"><path fill="#F0DB4F" d="M2 2h124v124H2z"/><path fill="#323330" d="M35.2 98.7c2.1 3.7 4.8 6.4 9.7 6.4 4.1 0 6.7-2 6.7-4.8 0-3.4-2.7-4.6-7.2-6.5l-2.5-1.1c-7.1-3-11.8-6.9-11.8-14.9 0-7.4 5.7-13.1 14.5-13.1 6.3 0 10.8 2.2 14.1 7.9l-7.7 4.9c-1.7-3-3.5-4.2-6.4-4.2-2.9 0-4.8 1.9-4.8 4.2 0 2.9 1.9 4.1 6.2 5.9l2.5 1.1c8.4 3.6 13.1 7.2 13.1 15.4 0 8.8-6.9 13.6-16.2 13.6-9.1 0-14.9-4.3-17.8-10l8.6-4.8zm37.3 1.3c1.5 2.7 2.9 5 6.2 5 3.2 0 5.2-1.2 5.2-6V66.8h10.5v32.4c0 9.9-5.8 14.4-14.3 14.4-7.7 0-12.1-4-14.4-8.7l6.8-4.9z"/></svg>
