<svg xmlns="http://www.w3.org/2000/svg" viewBox="0 0 128 128"><linearGradient id="python-a" x1="70.252" x2="170.659" y1="1237.476" y2="1151.089" gradientTransform="matrix(.563 0 0 -.568 -29.215 707.817)" gradientUnits="userSpaceOnUse"><stop offset="0" stop-color="#5A9FD4"/><stop offset="1" stop-color="#306998"/></linearGradient><path fill="url(#python-a)" d="M63.4 11.1c-18.3 0-17.2 7.9-17.2 7.9l.02 8.2h17.5v2.5H29.8s-11.6-1.3-11.6 17c0 18.3 10.1 17.6 10.1 17.6h6v-8.5s-.3-10.1 9.9-10.1h17.1s9.6.2 9.6-9.3V17.7s1.5-6.6-7.5-6.6zm-9.5 3.8c1.7 0 3.1 1.4 3.1 3.1 0 1.7-1.4 3.1-3.1 3.1-1.7 0-3.1-1.4-3.1-3.1 0-1.7 1.4-3.1 3.1-3.1z"/><linearGradient id="python-b" x1="209.474" x2="173.62" y1="1098.811" y2="1149.539" gradientTransform="matrix(.563 0 0 -.568 -29.215 707.817)" gradientUnits="userSpaceOnUse"><stop offset="0" stop-color="#FFD43B"/><stop offset="1" stop-color="#FFE873"/></linearGradient><path fill="url(#python-b)" d="M64.6 116.9c18.3 0 17.2-7.9 17.2-7.9l-.02-8.2H64.3v-2.5h33.9s11.6 1.3 11.6-17c0-18.3-10.1-17.6-10.1-17.6h-6v8.5s.3 10.1-9.9 10.1H66.7s-9.6-.2-9.6 9.3v18.5s-1.5 6.8 7.5 6.8zm9.5-3.8c-1.7 0-3.1-1.4-3.1-3.1 0-1.7 1.4-3.1 3.1-3.1 1.7 0 3.1 1.4 3.1 3.1 0 1.7-1.4 3.1-3.1 3.1z"/></svg>
